<svg xmlns="http://www.w3.org/2000/svg" data-name="Layer 1" viewBox="0 0 485 320" xmlns:xlink="http://www.w3.org/1999/xlink"><path id="ab4f3350-d584-452d-9eac-b0b73bd1c74e-235" data-name="Path 140" d="M326.07167,277.457a25.846,25.846,0,1,1,25.846-25.846,25.846,25.846,0,0,1-25.846,25.846Zm0-50.8a24.955,24.955,0,1,0,24.955,24.955,24.95493,24.95493,0,0,0-24.955-24.955Z" transform="translate(-216.57664 -155.73799)" fill="#3f3d56"/><path id="b38c2432-9b55-44a1-a6c5-37f262cb8526-236" data-name="Path 174" d="M588.07166,277.457a25.846,25.846,0,1,1,25.846-25.846,25.846,25.846,0,0,1-25.846,25.846Zm0-50.8a24.955,24.955,0,1,0,24.955,24.955,24.95493,24.95493,0,0,0-24.955-24.955Z" transform="translate(-216.57664 -155.73799)" fill="#3f3d56"/><path id="b9a1c0cd-2b1d-41a9-871b-afddc5e936af-237" data-name="Path 146" d="M682.70161,217.47h-450.245c-8.765.015-15.868,8.79-15.88,19.62V451.747c.012,10.829,7.115,19.6,15.88,19.62h450.245c8.765-.015,15.868-8.79,15.88-19.62V237.089c-.012-10.829-7.115-19.6-15.88-19.62Zm14.014,234.277c-.01,9.556-6.277,17.3-14.012,17.311h-450.247c-7.735-.012-14-7.755-14.012-17.311V237.089c.009-9.556,6.277-17.3,14.012-17.311h450.245c7.735.012,14,7.755,14.012,17.311Z" transform="translate(-216.57664 -155.73799)" fill="#3f3d56"/><rect id="a89ccb60-c26f-4785-b3c5-3332740adbf1" data-name="Rectangle 21" x="33" y="148.06801" width="80" height="56" fill="#f2f2f2"/><rect id="b7e05322-8b5b-4202-896a-d010557e20ee" data-name="Rectangle 30" x="145" y="148.06801" width="80" height="56" fill="#f2f2f2"/><rect id="ad37576e-0400-4032-9a23-fea9f12fbce1" data-name="Rectangle 31" x="257" y="148.06801" width="80" height="56" fill="#f2f2f2"/><rect id="aa533c7f-257d-4f82-9a34-f3791ed05f8e" data-name="Rectangle 32" x="369" y="148.06801" width="80" height="56" fill="#f2f2f2"/><rect id="ab695b59-e86b-4a87-812a-08bf740c05b4" data-name="Rectangle 33" x="33" y="230.06801" width="80" height="56" fill="#f2f2f2"/><rect id="a6c88313-aaf4-41f2-8928-a742f49a0902" data-name="Rectangle 34" x="145" y="230.06801" width="80" height="56" fill="#f2f2f2"/><rect id="f58c3339-a4c0-4d62-ba2a-e54ff2bf716d" data-name="Rectangle 35" x="257" y="230.06801" width="80" height="56" fill="#f2f2f2"/><rect id="a422fb6a-8004-41fc-ab64-b502da5703c1" data-name="Rectangle 36" x="369" y="230.06801" width="80" height="56" fill="#f2f2f2"/><path id="e86106fc-25bd-447d-bb7e-e20bb3b23e30-238" data-name="Path 168" d="M388.22563,441.48l-18.885-26.081,5.144-3.724,14.456,19.963,55.317-56.832,4.55,4.43Z" transform="translate(-216.57664 -155.73799)" fill="#aac79e"/><path id="aa2d9f48-069a-485a-b75e-c70dd332b5e8-239" data-name="Path 176" d="M501.22563,359.48l-18.885-26.081,5.144-3.724,14.456,19.963,55.317-56.832,4.55,4.43Z" transform="translate(-216.57664 -155.73799)" fill="#aac79e"/><rect id="a17708df-8f3a-464e-8619-6278c337a09b" data-name="Rectangle 38" x="108.46899" width="1.367" height="95.99" fill="#2f2e41"/><rect id="e9aa34a1-352e-42c8-a0fd-7deef0e48a7e" data-name="Rectangle 40" x="371.46899" width="1.367" height="95.99" fill="#2f2e41"/><path id="ba3ff805-5da2-4d08-bd39-7111d50a55d9-241" data-name="Path 238" d="M277.22563,359.48l-18.885-26.081,5.144-3.724,14.456,19.963,55.317-56.832,4.55,4.43Z" transform="translate(-216.57664 -155.73799)" fill="#aac79e"/></svg>